<svg viewBox="0 0 318.41 77.08" xmlns="http://www.w3.org/2000/svg" width="318.41" height="77.08"><defs><style>.cls-1{fill:#0c5df0;}</style></defs><g data-name="Capa 2" id="Capa_2"><g data-name="Layer 1" id="Layer_1"><path d="M38.52,77.08A38.54,38.54,0,1,1,77,38.54,38.57,38.57,0,0,1,38.52,77.08m0-73.58a35,35,0,1,0,35,35,35.07,35.07,0,0,0-35-35" class="cls-1"></path><path d="M41.82,65.16a5.78,5.78,0,0,1-5.83-5,8.8,8.8,0,0,1,.15-2.8c.07-.44.14-.91.19-1.39a17,17,0,0,1-4-.9,1.77,1.77,0,0,0-.29,1.14,6.58,6.58,0,0,1-.73,3,5.32,5.32,0,0,1-3.5,2.54,6.22,6.22,0,0,1-5-.94,6.13,6.13,0,0,1-2.63-4,6,6,0,0,1,1.08-4.38,8.8,8.8,0,0,1,2.09-1.88c.39-.29.82-.6,1.22-.93a17.63,17.63,0,0,1-2.37-3.87c-.48,0-.7.22-1.14.63A6.74,6.74,0,0,1,18.45,48a5.31,5.31,0,0,1-4.29-.59,6.25,6.25,0,0,1-3-4.18,6.12,6.12,0,0,1,.89-4.72,6,6,0,0,1,3.82-2.42,12.13,12.13,0,0,1,3,0c.61,0,1.26.09,1.92.11a12.63,12.63,0,0,1,.69-3.13c-.37-.37-.68-.38-1.29-.4a6.77,6.77,0,0,1-3-.68,5.36,5.36,0,0,1-2.61-3.45,6.22,6.22,0,0,1,.85-5.07,1.75,1.75,0,0,1,2.9,2A2.71,2.71,0,0,0,18,27.63a1.93,1.93,0,0,0,.79,1.21,3.3,3.3,0,0,0,1.54.31,5.08,5.08,0,0,1,4.62,2.63,1.75,1.75,0,0,1,.15,1.7A10.71,10.71,0,0,0,24.16,38a1.76,1.76,0,0,1-1.66,1.68,32.26,32.26,0,0,1-3.91-.11,12.57,12.57,0,0,0-2-.06,2.5,2.5,0,0,0-1.62,1,2.59,2.59,0,0,0-.33,2.05,2.68,2.68,0,0,0,1.31,1.82,2,2,0,0,0,1.42.3,3.39,3.39,0,0,0,1.32-.87,5.12,5.12,0,0,1,5.05-1.41A1.77,1.77,0,0,1,25,43.48a14,14,0,0,0,3.17,5,1.75,1.75,0,0,1,.09,2.37,16.64,16.64,0,0,1-2.91,2.54,8,8,0,0,0-1.29,1.06,2.49,2.49,0,0,0-.49,1.83A2.62,2.62,0,0,0,24.79,58a2.71,2.71,0,0,0,2.21.41,2,2,0,0,0,1.23-.77,3.39,3.39,0,0,0,.34-1.53A5,5,0,0,1,31,51.67a1.74,1.74,0,0,1,1.68-.17,14,14,0,0,0,5.42,1.11,1.75,1.75,0,0,1,1.75,1.65,17.11,17.11,0,0,1-.28,3.67,8.49,8.49,0,0,0-.16,1.66,2.36,2.36,0,0,0,3,2,2.69,2.69,0,0,0,1.85-1.27,2,2,0,0,0,.33-1.41,3.52,3.52,0,0,0-.85-1.35A5,5,0,0,1,42.38,53a1.78,1.78,0,0,1,1.08-1.36c.38-.16.76-.33,1.13-.51a1.75,1.75,0,1,1,1.58,3.12l-.35.17a2.15,2.15,0,0,0,.58.89A6.9,6.9,0,0,1,48,57.88a5.35,5.35,0,0,1-.68,4.27A6.2,6.2,0,0,1,43,65.05a6.33,6.33,0,0,1-1.21.11" class="cls-1"></path><path d="M59.34,54a1.75,1.75,0,0,1-1.24-3c.07-.06.17-.16.11-.51A3,3,0,0,0,57,48.75a18.41,18.41,0,0,0-3-1.2c-.59-.19-1.24-.4-2.08-.72a1.81,1.81,0,0,1-1-1,1.73,1.73,0,0,1,0-1.39,13.88,13.88,0,0,0,1.29-5.58,1.76,1.76,0,0,1,1.55-1.71,16.6,16.6,0,0,1,4,.17,8.05,8.05,0,0,0,1.66.14,2.38,2.38,0,0,0,2-3,2.76,2.76,0,0,0-1.32-1.83,1.93,1.93,0,0,0-1.41-.3,3.44,3.44,0,0,0-1.33.88,5,5,0,0,1-4.64,1.46,1.75,1.75,0,0,1-1.4-1.11A14,14,0,0,0,48,28.45a1.75,1.75,0,0,1-.1-2.42,16.8,16.8,0,0,1,2.8-2.41,8.43,8.43,0,0,0,1.29-1.06,2.37,2.37,0,0,0-.7-3.54,2.69,2.69,0,0,0-2.21-.4,1.93,1.93,0,0,0-1.23.76,5.63,5.63,0,0,0-.48,1.8,6.32,6.32,0,0,1-1.87,4.05,1.74,1.74,0,0,1-1.88.35A13.88,13.88,0,0,0,38,24.52a1.76,1.76,0,0,1-1.78-1.61A16.55,16.55,0,0,1,36.43,19a7.92,7.92,0,0,0,.17-1.66,2.37,2.37,0,0,0-3-2,2.67,2.67,0,0,0-1.85,1.28,1.93,1.93,0,0,0-.33,1.41,5.35,5.35,0,0,0,.93,1.61,6.21,6.21,0,0,1,1.53,4.38,1.72,1.72,0,0,1-1.08,1.53q-.5.21-1,.45a1.75,1.75,0,0,1-1.59-3.12,5,5,0,0,0-.72-1.16,8.67,8.67,0,0,1-1.46-2.65,5.38,5.38,0,0,1,.69-4.28A6.24,6.24,0,0,1,33,11.92a5.86,5.86,0,0,1,7,4.86,9.06,9.06,0,0,1-.16,2.79c-.07.48-.15,1-.2,1.51a17.38,17.38,0,0,1,3.91.78,6.23,6.23,0,0,0,.26-1.21,8.38,8.38,0,0,1,.85-2.9,5.34,5.34,0,0,1,3.5-2.54,6.23,6.23,0,0,1,5,.95,5.85,5.85,0,0,1,1.54,8.41,8.93,8.93,0,0,1-2.08,1.87c-.35.26-.73.53-1.09.83a17.61,17.61,0,0,1,2.51,3.93,2,2,0,0,0,.87-.59A6.86,6.86,0,0,1,57.59,29a5.34,5.34,0,0,1,4.28.6,6.2,6.2,0,0,1,3,4.18,5.84,5.84,0,0,1-4.71,7.13,8.66,8.66,0,0,1-2.8-.09c-.54-.08-1.12-.16-1.71-.19a17.49,17.49,0,0,1-.79,3.51l.23.08a21.79,21.79,0,0,1,3.48,1.4A6.28,6.28,0,0,1,61.67,50a4,4,0,0,1-1.09,3.55,1.75,1.75,0,0,1-1.24.51" class="cls-1"></path><path d="M45.37,36.28a5.57,5.57,0,0,1-3.71-1.68,5.05,5.05,0,0,1-1.74-4.48,1.75,1.75,0,0,1,3.42.71,2.26,2.26,0,0,0,.75,1.25,2.14,2.14,0,0,0,1.28.7,1.82,1.82,0,0,1,2,1.49A1.68,1.68,0,0,1,46,36.22a3.31,3.31,0,0,1-.64.06" class="cls-1"></path><path d="M39.19,48.44a1.75,1.75,0,0,1-1.54-.92,2.14,2.14,0,0,0-1-.87c-.89-.39-1.64-.14-1.76.12a1.75,1.75,0,0,1-3.2-1.42c1-2.18,3.82-3,6.38-1.9a5.62,5.62,0,0,1,2.67,2.41,1.75,1.75,0,0,1-1.54,2.58" class="cls-1"></path><path d="M30,42.79a1.69,1.69,0,0,1-.5-.08,1.75,1.75,0,0,1-1.18-2.18c.41-1.35,0-2.4-.42-2.52a1.75,1.75,0,1,1,1.08-3.33c2.43.78,3.61,3.8,2.7,6.86A1.76,1.76,0,0,1,30,42.79" class="cls-1"></path><path d="M64.25,66.48A1.73,1.73,0,0,1,63,66L11.33,14.29a1.74,1.74,0,1,1,2.46-2.46L65.48,63.51a1.74,1.74,0,0,1-1.23,3" class="cls-1"></path><path d="M81.07,7.89h3l7.81,21.38c.52,1.44,1.08,3.64,1.08,3.64H93s.56-2.2,1.08-3.64l7.81-21.38h3L94.4,36H91.52Z" class="cls-1"></path><path d="M122.07,27.07H110.74l-3.21,9h-2.92L114.94,7.89h3L128.24,36h-2.93Zm-5.69-16.26s-.6,2.32-1.08,3.64l-3.76,10.21h9.69l-3.69-10.21c-.48-1.32-1.08-3.64-1.08-3.64Z" class="cls-1"></path><path d="M144.9,7.41c6.72,0,10.13,3.64,10.13,3.64l-1.49,2A13.22,13.22,0,0,0,145,10c-6.61,0-11.34,5.12-11.34,11.77S138.37,34,145.06,34a13.15,13.15,0,0,0,9.12-3.76l1.61,2A15,15,0,0,1,145,36.52c-8.33,0-14.26-6.53-14.26-14.74A14,14,0,0,1,144.9,7.41" class="cls-1"></path><path d="M161.43,7.89h2.81V26.18c0,4.85,3.12,7.77,8,7.77s8-2.92,8-7.85V7.89H183V26.22c0,6.25-4.37,10.29-10.73,10.29s-10.82-4-10.82-10.29Z" class="cls-1"></path><path d="M190.79,7.89h2.68l14.37,20.26c1,1.4,2.33,3.8,2.33,3.8h.08s-.24-2.32-.24-3.8V7.89h2.76V36h-2.68L195.71,15.77c-1-1.4-2.32-3.8-2.32-3.8h-.08s.24,2.32.24,3.8V36h-2.76Z" class="cls-1"></path><path d="M234.84,27.07H223.5l-3.2,9h-2.92L227.71,7.89h3L241,36h-2.92Zm-5.69-16.26s-.6,2.32-1.08,3.64L224.3,24.66H234l-3.68-10.21c-.48-1.32-1.08-3.64-1.08-3.64Z" class="cls-1"></path><path d="M306.21,42.22A.18.18,0,0,1,306,42a.18.18,0,1,1,.36,0,.18.18,0,0,1-.18.18" class="cls-1"></path><path d="M295.11,28.19l.13.25v0a1.23,1.23,0,0,0,0-.49.87.87,0,0,1-.14.27" class="cls-1"></path><path d="M294.91,25.67a1.52,1.52,0,0,0,0-.24s.09.16.18.14.33.26.38.31-.24.3-.35.26S295,26,295,25.87s-.07-.11-.06-.2" class="cls-1"></path><path d="M294.74,25.54l.22-.11s-.12.14-.07.22a.89.89,0,0,1-.17.46c-.12,0-.24,0-.33-.21s.07-.14.14-.2a1,1,0,0,1,.21-.16" class="cls-1"></path><path d="M294.93,25.35a.11.11,0,0,0-.12.07.08.08,0,0,0,.06.11.12.12,0,0,0,.17-.07c0-.06-.06-.08-.11-.11" class="cls-1"></path><path d="M302,29.1c.06,0,.06.08.06.12a.11.11,0,0,1-.12.06.13.13,0,0,1-.1-.15c0-.06.1,0,.16,0" class="cls-1"></path><path d="M293.31,31.56l-.08-.17a3.69,3.69,0,0,1,1.69-.4,3.9,3.9,0,0,1,1.68.38l-.09.18a3.7,3.7,0,0,0-3.2,0" class="cls-1"></path><path d="M293.55,31l-.07-.19a4.33,4.33,0,0,1,2.82,0l-.06.19a4.13,4.13,0,0,0-2.69,0" class="cls-1"></path><path d="M296,30.45a4.56,4.56,0,0,0-2.11,0l0-.19a4.67,4.67,0,0,1,2.2,0Z" class="cls-1"></path><polygon points="294.96 14.7 295.61 16.02 297.08 16.24 296.02 17.27 296.27 18.73 294.96 18.04 293.65 18.73 293.9 17.27 292.83 16.24 294.3 16.02 294.96 14.7" class="cls-1"></polygon><polygon points="294.96 14.7 295.61 16.02 297.08 16.24 296.02 17.27 296.27 18.73 294.96 18.04 293.65 18.73 293.9 17.27 292.83 16.24 294.3 16.02 294.96 14.7" class="cls-1"></polygon><polygon points="304.51 17.16 305.17 18.49 306.63 18.7 305.57 19.73 305.82 21.19 304.51 20.5 303.2 21.19 303.45 19.73 302.39 18.7 303.85 18.49 304.51 17.16" class="cls-1"></polygon><polygon points="311.9 23.14 312.56 24.47 314.03 24.68 312.97 25.72 313.22 27.18 311.9 26.49 310.59 27.18 310.84 25.72 309.78 24.68 311.25 24.47 311.9 23.14" class="cls-1"></polygon><polygon points="316.29 31.71 316.94 33.04 318.41 33.25 317.35 34.28 317.6 35.74 316.29 35.06 314.97 35.74 315.22 34.28 314.16 33.25 315.63 33.04 316.29 31.71" class="cls-1"></polygon><polygon points="316.29 41.65 316.94 42.98 318.41 43.2 317.35 44.23 317.6 45.69 316.29 45 314.98 45.69 315.23 44.23 314.17 43.2 315.63 42.98 316.29 41.65" class="cls-1"></polygon><polygon points="311.91 50.26 312.57 51.59 314.04 51.8 312.97 52.84 313.22 54.3 311.91 53.61 310.6 54.3 310.85 52.84 309.79 51.8 311.26 51.59 311.91 50.26" class="cls-1"></polygon><polygon points="304.56 56.25 305.21 57.58 306.68 57.79 305.62 58.83 305.87 60.29 304.56 59.6 303.25 60.29 303.5 58.83 302.43 57.79 303.9 57.58 304.56 56.25" class="cls-1"></polygon><polygon points="294.86 58.35 295.52 59.68 296.99 59.9 295.93 60.93 296.18 62.39 294.86 61.7 293.55 62.39 293.8 60.93 292.74 59.9 294.21 59.68 294.86 58.35" class="cls-1"></polygon><polygon points="285.39 56.26 286.04 57.59 287.51 57.8 286.45 58.83 286.7 60.29 285.39 59.6 284.07 60.29 284.32 58.83 283.26 57.8 284.73 57.59 285.39 56.26" class="cls-1"></polygon><polygon points="278.03 50.27 278.68 51.6 280.15 51.81 279.09 52.85 279.34 54.31 278.03 53.62 276.71 54.31 276.96 52.85 275.9 51.81 277.37 51.6 278.03 50.27" class="cls-1"></polygon><polygon points="273.64 41.72 274.3 43.05 275.77 43.26 274.7 44.29 274.95 45.75 273.64 45.06 272.33 45.75 272.58 44.29 271.52 43.26 272.99 43.05 273.64 41.72" class="cls-1"></polygon><polygon points="273.64 31.71 274.3 33.04 275.77 33.25 274.7 34.28 274.95 35.74 273.64 35.06 272.33 35.74 272.58 34.28 271.52 33.25 272.99 33.04 273.64 31.71" class="cls-1"></polygon><polygon points="278.09 23.15 278.75 24.48 280.21 24.69 279.15 25.73 279.4 27.19 278.09 26.5 276.78 27.19 277.03 25.73 275.97 24.69 277.43 24.48 278.09 23.15" class="cls-1"></polygon><polygon points="285.37 17.16 286.03 18.49 287.5 18.7 286.43 19.74 286.69 21.2 285.37 20.51 284.06 21.2 284.31 19.74 283.25 18.7 284.72 18.49 285.37 17.16" class="cls-1"></polygon><path d="M304.16,45.61a1.22,1.22,0,0,0-.16-.53,2,2,0,0,1-.41-.63,1.36,1.36,0,0,1,0-.5,4.51,4.51,0,0,0-.08-.49,1.72,1.72,0,0,1,.24-.55,3.11,3.11,0,0,0,.45-.58.49.49,0,0,0,.05.33,1.2,1.2,0,0,1,.11.55,3.78,3.78,0,0,0,.06.73,1.52,1.52,0,0,1,.05.71c-.05.2-.31,1-.31,1" class="cls-1"></path><path d="M304.25,45.33s.63-.8.63-1.13a1.11,1.11,0,0,1,.11-.6.86.86,0,0,0,.08-1,1.36,1.36,0,0,1-.24-.44c-.11-.3-.33-.3-.37-.6,0,0-.07.35-.1.66a1.72,1.72,0,0,0,.05.57c0,.17-.08.36-.08.6s0,.35,0,.5a3.54,3.54,0,0,1-.11,1.46" class="cls-1"></path><path d="M304.16,45.61c0,.14.42-.15.64-.15s.88.09,1-.08.41-.46.5-.52a2.9,2.9,0,0,0,.47-.82,2.81,2.81,0,0,1,.73-.83,2,2,0,0,0-1.29.16,1.36,1.36,0,0,1-.63.31c-.11,0-1,.77-1,1a8.06,8.06,0,0,1-.45.89" class="cls-1"></path><path d="M304.16,45.61a3.54,3.54,0,0,1,.88-.48,1.67,1.67,0,0,0,1-.9c0-.19.41-.46.47-.58.2-.33.31-1.07.58-1.26,0,0-.75.19-.94.22-.35,0-.65.11-.79.41s-.25.55-.36.58-.27.41-.33.8a5.54,5.54,0,0,1-.5,1.21" class="cls-1"></path><path d="M297.2,49.62l.73-.09a3.07,3.07,0,0,0,.65-.16,2.22,2.22,0,0,0,.74-.51,1.85,1.85,0,0,0,.54-.85c.19,0-.28-.08-.5,0a1.39,1.39,0,0,0-.72.37,6.24,6.24,0,0,1-.63.48,1.28,1.28,0,0,0-.31.28,1.31,1.31,0,0,1-.5.52" class="cls-1"></path><path d="M296.47,50s1.33-.6,1.47-.71a4.29,4.29,0,0,0,.51-.47c.13-.15.69-.43.79-.61s.41-.61.62-1c.1-.2-.89.06-.89.06-.81.33-.45.1-.89.43a1.67,1.67,0,0,0-.52.53c-.1.24-.22.65-.34.86a3.76,3.76,0,0,1-.75.9" class="cls-1"></path><path d="M295.75,50.17a3.29,3.29,0,0,0,1.6-1c.36-.47.36-.33.51-.48a4.17,4.17,0,0,0,.7-.82s.32-1.08.31-1.21-.42,0-.76.2a5.08,5.08,0,0,0-.69.5c-.3.19-.34.66-.47.88a1.17,1.17,0,0,0-.21.65c0,.25-.14.33-.22.53s-.39.21-.77.71" class="cls-1"></path><path d="M297.51,49.81s.94-.41,1.07-.44.2-.11.39-.17a1.07,1.07,0,0,1,.69-.08,2.91,2.91,0,0,0,1,.11c.17-.09-.24.47-.43.58a1.4,1.4,0,0,1-.8.13c-.28,0-.66,0-.8,0a1,1,0,0,1-.42,0,1.33,1.33,0,0,0-.71-.11" class="cls-1"></path><path d="M296.88,49.81s1-.26,1.22-.26a7.08,7.08,0,0,1,.88.07,5.54,5.54,0,0,1,1,.06,3.47,3.47,0,0,0,1.25.15c.22,0-.45.6-.71.67-.85.24-.59.2-1.14.06a6.7,6.7,0,0,0-1-.13c-.17,0-.14-.13-.36-.22a3.2,3.2,0,0,0-1.17-.4" class="cls-1"></path><path d="M296.08,50.14a3.42,3.42,0,0,1,1.86-.22,4.46,4.46,0,0,0,.77.18c.26,0,.48-.1.91.08a6.44,6.44,0,0,0,1.37.44c.23,0-.72.61-1,.57-.83-.12-1.63.17-2,0l-.73-.29c-.18-.06-.27-.22-.38-.3a1.39,1.39,0,0,0-.8-.47" class="cls-1"></path><path d="M301.6,47.85s.61-.67.73-.75.39-.3.54-.43a1.44,1.44,0,0,1,.68-.3,1.77,1.77,0,0,0,.65-.42c.11-.15,0,.54-.15.72a1.43,1.43,0,0,1-.66.46,7.88,7.88,0,0,0-.71.35,1.1,1.1,0,0,1-.39.15,1.44,1.44,0,0,0-.69.22" class="cls-1"></path><path d="M301,48.12s1-.72,1.18-.8a6.72,6.72,0,0,1,.64-.23c.19-.06.71-.43.92-.43a1.53,1.53,0,0,0,.76-.15c.19-.14,0,.5-.17.68-.66.58-.21.41-.75.52-.34.07-.78.26-.94.3s-.18,0-.42,0a3.46,3.46,0,0,0-1.22.15" class="cls-1"></path><path d="M300.79,48.31a2.36,2.36,0,0,1,1.25-.42,4.08,4.08,0,0,0,.76-.18,2.32,2.32,0,0,1,.78-.1c.23,0,1.13.28,1.34.15s-.22.28-.47.37-.32.37-.71.5a3.13,3.13,0,0,1-1.11.25,4.75,4.75,0,0,0-.6-.15c-.27,0-.72-.41-1.24-.42" class="cls-1"></path><path d="M300.71,48.15s-.21-1,0-1.28a.93.93,0,0,0,.22-.53,2.17,2.17,0,0,1,.3-.79,1.9,1.9,0,0,0,.28-.93s.58.57.55.93,0,.27,0,.44a2.14,2.14,0,0,1-.25.88c-.11.16,0,.66-.16.76s-.76.6-.9.52" class="cls-1"></path><path d="M300.79,48.31a2.51,2.51,0,0,1,.55-.4c.19-.08,1-.3,1-.49s.69-.86.71-1,.15-.39.11-.52a3.3,3.3,0,0,0-.16-.66c-.08-.2-.27-.66-.47-.75,0,0-.16.53-.21.72a1.71,1.71,0,0,1-.2.52,3,3,0,0,0-.38.83c0,.19-.17.82-.2,1a2.7,2.7,0,0,1-.76.81" class="cls-1"></path><path d="M305.59,41.89c-.11.19-.12-1.13-.17-1.26a1.84,1.84,0,0,0-.31-.52c-.11-.12-.11-.5-.16-.61a2.88,2.88,0,0,1,.05-1,2.75,2.75,0,0,1,.33.3c.12.13.31.19.36.36s.17.16.25.33a1.1,1.1,0,0,1,.11.66,1.39,1.39,0,0,0,0,.49,4.34,4.34,0,0,1-.43,1.29" class="cls-1"></path><path d="M305.6,42s.06-.35-.08-.49-.27-.14-.33-.22,0-.19-.09-.3a2.78,2.78,0,0,1-.19-.39c-.05-.3-.22-.63-.08-1a2.93,2.93,0,0,1,.38.16.86.86,0,0,1,.36.5.72.72,0,0,0,.14.41,1,1,0,0,1,.06.8,1.5,1.5,0,0,0-.17.49" class="cls-1"></path><path d="M305.65,42c0,.16,0-.22.44-.36a4.23,4.23,0,0,0,1.24-.42c.19-.19.3-.32.38-.41a1.55,1.55,0,0,0,.33-.58,6.17,6.17,0,0,0,.17-.88,1.26,1.26,0,0,0-.44.17c-.14.11-.39.11-.53.2s-.24.3-.33.38-.32.09-.43.24a2.59,2.59,0,0,0-.34.69.68.68,0,0,1-.35.41c-.14.09-.11.42-.14.56" class="cls-1"></path><path d="M305.71,41.73s.38-.47.58-.47.68-.5.71-.71a1.54,1.54,0,0,1,.3-.72.67.67,0,0,0,.28-.6c0-.33,0-.88,0-.88s-.11.33-.26.41-.47.19-.53.3-.27.11-.36.44a1.13,1.13,0,0,1-.14.42,1.74,1.74,0,0,0-.24.46,3.29,3.29,0,0,0-.3,1.35" class="cls-1"></path><path d="M306.29,37.77s0-.8-.17-1-.28-.72-.77-1a1.11,1.11,0,0,1,0,.33,1.23,1.23,0,0,0,0,.66c.08.14.36.39.36.5a.73.73,0,0,0,.32.44l.26.08" class="cls-1"></path><path d="M306.3,38.45s0-.78-.13-1a4.42,4.42,0,0,1-.33-.35c-.08-.12-.17-.39-.36-.5a1.82,1.82,0,0,1-.55-.49,2.27,2.27,0,0,0,.11,1c.2.36.2.55.41.63a1,1,0,0,1,.33.19.73.73,0,0,0,.34.14c.11,0,.18.29.18.29" class="cls-1"></path><path d="M306.27,38.35c.11-.12,0-.5,0-.66s.24-.54.3-.73.28-.24.33-.34a3.25,3.25,0,0,1,.19-.44c.11-.11.33-.18.43-.33a1.18,1.18,0,0,1,.35-.26,5,5,0,0,1,.09.84,1.49,1.49,0,0,1-.13.62c-.06.1-.12.25-.24.47s-1,.52-1,.64-.3.33-.28.19" class="cls-1"></path><path d="M306.27,38.48s0-.53.4-.58a1.23,1.23,0,0,0,.47-.71,2.53,2.53,0,0,1,.13-.74.87.87,0,0,0,.12-.74c-.12-.29-.31-.68-.31-.68l-.24.4c-.14.28-.29.31-.31.42s-.19.19-.25.42a.89.89,0,0,0,0,.41,1.54,1.54,0,0,0-.06.49,3.17,3.17,0,0,0,.1,1.31" class="cls-1"></path><path d="M305.84,35.16c0-.08-.19-.17-.39-.22s-.49-.49-.62-.6-.2-.3-.37-.39a1.29,1.29,0,0,1-.32-.77l.6.14a1.18,1.18,0,0,1,.52.33c.12.13.23.35.34.41a.89.89,0,0,1,.24.61Z" class="cls-1"></path><path d="M305.87,34.91s0-.32,0-.46a1.52,1.52,0,0,0-.14-1,2.71,2.71,0,0,0-.93-.73,2.59,2.59,0,0,0-.09.56c0,.15.18.69.3.75s.45.71.83.85" class="cls-1"></path><path d="M305.94,35.16c.07.12.09-.41.26-.55a.67.67,0,0,0,.19-.55,2.19,2.19,0,0,0-.08-.52c0-.14-.44-.72-.41-.88,0,0-.24.54-.3.69s0,.38,0,.54-.16.47-.05.64l.37.63" class="cls-1"></path><path d="M304.55,32.33s0-.08-.27-.08a1.34,1.34,0,0,1-.72-.14,2.21,2.21,0,0,0-.41-.31.89.89,0,0,1-.33-.41c0-.11-.22-.32-.3-.32a2.1,2.1,0,0,1,.63.05c.33.08.79.25.9.47s.5.74.5.74" class="cls-1"></path><path d="M304.56,32.26c-.07.19-.62-.18-.72-.31l-.28-.36s-.26-.32-.33-.44c-.17-.31-.13-.85-.06-.8s.39.22.47.25a.42.42,0,0,1,.3.21,1.26,1.26,0,0,0,.2.42.83.83,0,0,1,.42,1" class="cls-1"></path><path d="M304.59,32.27s-.34-.27-.48-.41-.08-.38-.17-.49-.27-.36-.21-.52.16-.64.16-.64l.33.33a.82.82,0,0,1,.22.42c.06.16.17.27.22.41a1.29,1.29,0,0,1,0,.58l0,.32" class="cls-1"></path><path d="M291.63,52l.82-.06c.11,0,.36-.49.47-.57a13.14,13.14,0,0,1,3.19-1.18,17.27,17.27,0,0,0,3.46-1.1,16.25,16.25,0,0,0,4.76-3.49,14.38,14.38,0,0,0,1.32-3.52,15.36,15.36,0,0,0,.72-3.49A15.36,15.36,0,0,0,306,35a20.08,20.08,0,0,0-2.81-4.9,31.7,31.7,0,0,1,2.59,4.73,14.42,14.42,0,0,1,.47,3.92,21,21,0,0,1-1.6,5.64c-.74,1.65-1.39,1.85-2.56,2.78a17.18,17.18,0,0,1-2.47,1.57,17.91,17.91,0,0,1-3.24,1.06c-.49.09-3,.83-3.33,1a8.38,8.38,0,0,0-1.4,1.16" class="cls-1"></path><path d="M300.34,47.75a.16.16,0,0,1-.17-.17.16.16,0,0,1,.17-.15.16.16,0,0,1,.16.15.16.16,0,0,1-.16.17" class="cls-1"></path><path d="M301.27,48.91a.16.16,0,0,1-.16-.17.17.17,0,0,1,.16-.17.18.18,0,0,1,.17.17.17.17,0,0,1-.17.17" class="cls-1"></path><path d="M303.44,45.28a.17.17,0,0,1-.16-.17.16.16,0,0,1,.16-.16.16.16,0,0,1,.17.16.17.17,0,0,1-.17.17" class="cls-1"></path><path d="M304.79,46a.17.17,0,0,1-.18-.18.18.18,0,1,1,.36,0,.17.17,0,0,1-.18.18" class="cls-1"></path><path d="M305,41.89a.19.19,0,0,1-.18-.19.19.19,0,0,1,.18-.18.19.19,0,0,1,.19.18.18.18,0,0,1-.19.19" class="cls-1"></path><path d="M306.17,42.22A.17.17,0,0,1,306,42a.18.18,0,0,1,.18-.19.19.19,0,0,1,.18.19.19.19,0,0,1-.18.18" class="cls-1"></path><path d="M305.59,38.59a.18.18,0,1,1,.18-.18.18.18,0,0,1-.18.18" class="cls-1"></path><path d="M306.6,35.26a.18.18,0,0,1-.18-.17.18.18,0,0,1,.18-.18.17.17,0,0,1,.18.18.18.18,0,0,1-.18.17" class="cls-1"></path><path d="M305.31,35.59a.18.18,0,0,1-.18-.18.18.18,0,1,1,.36,0,.18.18,0,0,1-.18.18" class="cls-1"></path><path d="M304,32.82a.18.18,0,1,1,0-.36.18.18,0,1,1,0,.36" class="cls-1"></path><path d="M305,32.05a.18.18,0,1,1,.18-.18.18.18,0,0,1-.18.18" class="cls-1"></path><path d="M303.09,30.18a.18.18,0,1,1,0-.36.18.18,0,0,1,0,.36" class="cls-1"></path><path d="M307,38.62a.18.18,0,0,1-.18-.18.18.18,0,0,1,.36,0,.18.18,0,0,1-.18.18" class="cls-1"></path><path d="M285.67,45.61c.05-.26.07-.45.16-.53a2,2,0,0,0,.41-.63,1.36,1.36,0,0,0,0-.5,4.51,4.51,0,0,1,.08-.49,1.72,1.72,0,0,0-.24-.55,3.11,3.11,0,0,1-.45-.58.49.49,0,0,1-.05.33,1.2,1.2,0,0,0-.11.55,3.78,3.78,0,0,1-.06.73,1.52,1.52,0,0,0-.05.71c.05.2.31,1,.31,1" class="cls-1"></path><path d="M285.58,45.33s-.63-.8-.63-1.13a1.11,1.11,0,0,0-.11-.6.86.86,0,0,1-.08-1,1.36,1.36,0,0,0,.24-.44c.11-.3.33-.3.37-.6,0,0,.07.35.1.66a1.72,1.72,0,0,1-.05.57c0,.17.08.36.08.6s0,.35,0,.5a3.54,3.54,0,0,0,.11,1.46" class="cls-1"></path><path d="M285.67,45.61c0,.14-.42-.15-.64-.15s-.88.09-1-.08-.41-.46-.5-.52A2.9,2.9,0,0,1,283,44a2.69,2.69,0,0,0-.74-.83,2.08,2.08,0,0,1,1.3.16,1.36,1.36,0,0,0,.63.31c.11,0,1,.77,1,1a8.06,8.06,0,0,0,.45.89" class="cls-1"></path><path d="M285.67,45.61a3.54,3.54,0,0,0-.88-.48c-.17,0-1-.54-1-.9,0-.19-.41-.46-.47-.58-.2-.33-.31-1.07-.58-1.26,0,0,.75.19.94.22.35,0,.65.11.79.41s.25.55.36.58.27.41.33.8a5.54,5.54,0,0,0,.5,1.21" class="cls-1"></path><path d="M292.63,49.62l-.73-.09a3.07,3.07,0,0,1-.65-.16,2.22,2.22,0,0,1-.74-.51A1.85,1.85,0,0,1,290,48c-.19,0,.28-.08.5,0a1.39,1.39,0,0,1,.72.37,6.24,6.24,0,0,0,.63.48,1.28,1.28,0,0,1,.31.28,1.31,1.31,0,0,0,.5.52" class="cls-1"></path><path d="M293.35,50s-1.33-.6-1.46-.71a4.29,4.29,0,0,1-.51-.47c-.13-.15-.69-.43-.79-.61s-.41-.61-.62-1c-.1-.2.89.06.89.06.81.33.44.1.89.43a1.67,1.67,0,0,1,.52.53c.1.24.22.65.34.86a3.65,3.65,0,0,0,.74.9" class="cls-1"></path><path d="M294.08,50.17a3.25,3.25,0,0,1-1.6-1c-.36-.47-.36-.33-.51-.48a4.52,4.52,0,0,1-.71-.82s-.31-1.08-.3-1.21.42,0,.76.2a5.08,5.08,0,0,1,.69.5c.3.19.34.66.47.88a1.17,1.17,0,0,1,.21.65c0,.25.14.33.22.53s.39.21.77.71" class="cls-1"></path><path d="M292.32,49.81s-.94-.41-1.07-.44-.2-.11-.39-.17a1.07,1.07,0,0,0-.69-.08,2.88,2.88,0,0,1-1,.11c-.17-.09.24.47.43.58a1.4,1.4,0,0,0,.8.13c.28,0,.66,0,.8,0a1,1,0,0,0,.42,0,1.33,1.33,0,0,1,.71-.11" class="cls-1"></path><path d="M293,49.81s-1-.26-1.22-.26a7.08,7.08,0,0,0-.88.07,5.54,5.54,0,0,0-1,.06,3.47,3.47,0,0,1-1.25.15c-.22,0,.45.6.71.67.85.24.59.2,1.14.06a6.7,6.7,0,0,1,1-.13c.17,0,.14-.13.36-.22a3.2,3.2,0,0,1,1.17-.4" class="cls-1"></path><path d="M293.75,50.14a3.42,3.42,0,0,0-1.86-.22,4.68,4.68,0,0,1-.77.18c-.26,0-.48-.1-.91.08a6.44,6.44,0,0,1-1.37.44c-.23,0,.72.61,1,.57.84-.12,1.64.17,2,0l.73-.29c.18-.06.27-.22.38-.3A1.39,1.39,0,0,1,293.75,50.14Z" class="cls-1"></path><path d="M288.22,47.85s-.6-.67-.72-.75-.39-.3-.54-.43a1.44,1.44,0,0,0-.68-.3,1.77,1.77,0,0,1-.65-.42c-.11-.15,0,.54.15.72a1.39,1.39,0,0,0,.65.46,7.08,7.08,0,0,1,.72.35,1,1,0,0,0,.39.15,1.38,1.38,0,0,1,.68.22" class="cls-1"></path><path d="M288.79,48.12s-1-.72-1.18-.8a6.72,6.72,0,0,0-.64-.23c-.2-.06-.71-.43-.92-.43a1.53,1.53,0,0,1-.76-.15c-.19-.14,0,.5.17.68.66.58.21.41.75.52.34.07.78.26.94.3s.18,0,.42,0a3.46,3.46,0,0,1,1.22.15" class="cls-1"></path><path d="M289,48.31a2.36,2.36,0,0,0-1.25-.42,4.08,4.08,0,0,1-.76-.18,2.32,2.32,0,0,0-.78-.1c-.23,0-1.13.28-1.34.15s.22.28.47.37.32.37.71.5a3.13,3.13,0,0,0,1.11.25,4.35,4.35,0,0,1,.6-.15c.26,0,.72-.41,1.24-.42" class="cls-1"></path><path d="M289.11,48.15s.22-1,.05-1.28a.93.93,0,0,1-.22-.53,2.17,2.17,0,0,0-.3-.79,1.8,1.8,0,0,1-.28-.93s-.58.57-.55.93,0,.27,0,.44a2.14,2.14,0,0,0,.25.88c.11.16.05.66.16.76s.76.6.89.52" class="cls-1"></path><path d="M289,48.31a2.51,2.51,0,0,0-.55-.4c-.19-.08-1-.3-1-.49s-.69-.86-.71-1-.15-.39-.11-.52a2.73,2.73,0,0,1,.16-.66c.08-.2.27-.66.47-.75,0,0,.16.53.21.72a1.71,1.71,0,0,0,.2.52,3,3,0,0,1,.38.83c0,.19.17.82.2,1a2.7,2.7,0,0,0,.76.81" class="cls-1"></path><path d="M284.24,41.89c.11.19.12-1.13.17-1.26a1.84,1.84,0,0,1,.31-.52c.11-.12.11-.5.16-.61a2.88,2.88,0,0,0-.05-1,2.75,2.75,0,0,0-.33.3c-.12.13-.31.19-.36.36s-.17.16-.25.33a1.1,1.1,0,0,0-.11.66,1.39,1.39,0,0,1,0,.49,4.34,4.34,0,0,0,.43,1.29" class="cls-1"></path><path d="M284.23,42s-.06-.35.08-.49.27-.14.33-.22,0-.19.09-.3a2.78,2.78,0,0,0,.19-.39c.05-.3.22-.63.08-1a2.93,2.93,0,0,0-.38.16.86.86,0,0,0-.36.5.72.72,0,0,1-.14.41,1,1,0,0,0-.06.8,1.5,1.5,0,0,1,.17.49" class="cls-1"></path><path d="M284.18,42c0,.16,0-.22-.44-.36a4.23,4.23,0,0,1-1.24-.42c-.19-.19-.3-.32-.38-.41a1.55,1.55,0,0,1-.33-.58,6.17,6.17,0,0,1-.17-.88,1.26,1.26,0,0,1,.44.17c.14.11.39.11.53.2s.24.3.33.38.32.09.43.24a3.38,3.38,0,0,1,.34.69.68.68,0,0,0,.35.41c.14.09.11.42.14.56" class="cls-1"></path><path d="M284.12,41.73s-.38-.47-.58-.47-.68-.5-.71-.71a1.54,1.54,0,0,0-.3-.72.67.67,0,0,1-.28-.6c0-.33,0-.88,0-.88s.12.33.27.41.47.19.53.3.27.11.36.44a1.13,1.13,0,0,0,.14.42,1.74,1.74,0,0,1,.24.46,3.29,3.29,0,0,1,.3,1.35" class="cls-1"></path><path d="M283.54,37.77s-.05-.8.17-1,.28-.72.77-1a1.11,1.11,0,0,0,0,.33,1.34,1.34,0,0,1,0,.66c-.08.14-.36.39-.36.5a.73.73,0,0,1-.32.44l-.26.08" class="cls-1"></path><path d="M283.53,38.45s0-.78.13-1a4.42,4.42,0,0,0,.33-.35c.08-.12.17-.39.36-.5a1.82,1.82,0,0,0,.55-.49,2.27,2.27,0,0,1-.11,1c-.2.36-.2.55-.41.63a.92.92,0,0,0-.33.19.73.73,0,0,1-.34.14c-.11,0-.18.29-.18.29" class="cls-1"></path><path d="M283.56,38.35c-.11-.12,0-.5,0-.66s-.25-.54-.3-.73-.28-.24-.33-.34a3.25,3.25,0,0,0-.19-.44c-.11-.11-.34-.18-.43-.33a1.18,1.18,0,0,0-.35-.26,5,5,0,0,0-.09.84,1.49,1.49,0,0,0,.13.62c.06.1.12.25.24.47s1,.52,1,.64.3.33.28.19" class="cls-1"></path><path d="M283.56,38.48s0-.53-.4-.58a1.19,1.19,0,0,1-.47-.71,2.49,2.49,0,0,0-.14-.74.91.91,0,0,1-.11-.74c.12-.29.3-.68.3-.68l.25.4c.14.28.28.31.31.42s.19.19.25.42a.89.89,0,0,1,.05.41,1.33,1.33,0,0,1,0,.49,3,3,0,0,1-.09,1.31" class="cls-1"></path><path d="M284,35.16c0-.08.19-.17.39-.22s.49-.49.62-.6.2-.3.36-.39.27-.44.33-.77l-.6.14a1.18,1.18,0,0,0-.52.33c-.12.13-.23.35-.34.41a.89.89,0,0,0-.24.61v.49" class="cls-1"></path><path d="M284,34.91s0-.32,0-.46a1.52,1.52,0,0,1,.14-1,2.71,2.71,0,0,1,.93-.73,2.59,2.59,0,0,1,.09.56c0,.15-.18.69-.3.75s-.45.71-.83.85" class="cls-1"></path><path d="M283.89,35.16c-.07.12-.09-.41-.26-.55a.64.64,0,0,1-.19-.55,2.19,2.19,0,0,1,.08-.52c0-.14.44-.72.41-.88,0,0,.24.54.3.69s-.05.38,0,.54.16.47.05.64l-.37.63" class="cls-1"></path><path d="M285.28,32.33s0-.08.27-.08a1.34,1.34,0,0,0,.72-.14,2.21,2.21,0,0,1,.41-.31.89.89,0,0,0,.33-.41c0-.11.22-.32.3-.32a2.1,2.1,0,0,0-.63.05c-.33.08-.79.25-.9.47s-.5.74-.5.74" class="cls-1"></path><path d="M285.27,32.26c.07.19.62-.18.72-.31l.28-.36s.26-.32.33-.44c.17-.31.13-.85.06-.8s-.39.22-.47.25a.42.42,0,0,0-.3.21,1.26,1.26,0,0,1-.2.42.83.83,0,0,0-.42,1" class="cls-1"></path><path d="M285.24,32.27s.34-.27.48-.41.08-.38.17-.49.27-.36.21-.52-.16-.64-.16-.64l-.33.33a.82.82,0,0,0-.22.42c-.06.16-.17.27-.22.41a1.29,1.29,0,0,0,0,.58l0,.32" class="cls-1"></path><path d="M298.2,52l-.82-.06c-.11,0-.36-.49-.47-.57a13.14,13.14,0,0,0-3.19-1.18,17.27,17.27,0,0,1-3.46-1.1,16.25,16.25,0,0,1-4.76-3.49,14.38,14.38,0,0,1-1.32-3.52,15.36,15.36,0,0,1-.72-3.49,15.36,15.36,0,0,1,.39-3.54,20.08,20.08,0,0,1,2.81-4.9,31.7,31.7,0,0,0-2.59,4.73,14.83,14.83,0,0,0-.47,3.92,21,21,0,0,0,1.6,5.64c.74,1.65,1.39,1.85,2.56,2.78a17.18,17.18,0,0,0,2.47,1.57,17.91,17.91,0,0,0,3.24,1.06c.49.09,3,.83,3.33,1A8.38,8.38,0,0,1,298.2,52" class="cls-1"></path><path d="M289.49,47.75a.16.16,0,0,0,.17-.17.16.16,0,0,0-.17-.15.16.16,0,0,0-.16.15.16.16,0,0,0,.16.17" class="cls-1"></path><path d="M288.56,48.91a.16.16,0,0,0,.16-.17.17.17,0,0,0-.16-.17.18.18,0,0,0-.17.17.17.17,0,0,0,.17.17" class="cls-1"></path><path d="M286.39,45.28a.17.17,0,0,0,.16-.17.16.16,0,0,0-.16-.16.16.16,0,0,0-.17.16.17.17,0,0,0,.17.17" class="cls-1"></path><path d="M285,46a.18.18,0,0,0,.18-.18.19.19,0,0,0-.18-.18.19.19,0,0,0-.18.18A.17.17,0,0,0,285,46" class="cls-1"></path><path d="M284.8,41.89a.19.19,0,0,0,.18-.19.19.19,0,0,0-.18-.18.19.19,0,0,0-.19.18.18.18,0,0,0,.19.19" class="cls-1"></path><path d="M283.66,42.22a.18.18,0,0,0,.18-.18.18.18,0,0,0-.18-.19.19.19,0,0,0-.18.19.19.19,0,0,0,.18.18" class="cls-1"></path><path d="M284.24,38.59a.18.18,0,1,0-.18-.18.18.18,0,0,0,.18.18" class="cls-1"></path><path d="M283.23,35.26a.18.18,0,0,0,.18-.17.18.18,0,0,0-.18-.18.17.17,0,0,0-.18.18.17.17,0,0,0,.18.17" class="cls-1"></path><path d="M284.52,35.59a.18.18,0,0,0,.18-.18.19.19,0,0,0-.18-.18.18.18,0,0,0-.18.18.17.17,0,0,0,.18.18" class="cls-1"></path><path d="M285.78,32.82a.18.18,0,1,0,0-.36.18.18,0,0,0,0,.36" class="cls-1"></path><path d="M284.82,32.05a.18.18,0,1,0-.18-.18.18.18,0,0,0,.18.18" class="cls-1"></path><path d="M286.74,30.18a.18.18,0,1,0,0-.36.18.18,0,1,0,0,.36" class="cls-1"></path><path d="M282.82,38.62a.18.18,0,0,0,.18-.18.18.18,0,0,0-.36,0,.18.18,0,0,0,.18.18" class="cls-1"></path><path d="M296.47,50.3a3.07,3.07,0,0,0,.3-1.24c.06-.52-.06-.71-.19-.78h-.08l-.33,0a.7.7,0,0,0-.74.31,9.39,9.39,0,0,0-.37,1.16.27.27,0,0,0-.12,0,.28.28,0,0,0-.13,0,9.17,9.17,0,0,0-.36-1.16.72.72,0,0,0-.75-.31l-.33,0h-.08c-.13.07-.25.26-.19.78a3.07,3.07,0,0,0,.3,1.24,7.85,7.85,0,0,0,.88,0,2,2,0,0,0-.82.72,1.12,1.12,0,0,0,.16,1.51c-.19-.22,0-.61,0-.61l.38.25c-.55-1,.49-1.54.59-1.59a.37.37,0,0,0,.63,0c.1.05,1.14.64.59,1.59l.39-.25s.21.39,0,.61a1.13,1.13,0,0,0,.17-1.51,2.06,2.06,0,0,0-.83-.72,7.85,7.85,0,0,0,.88,0m-1.78-.55,0,0s0,0,0,0m-.85,0a1.21,1.21,0,0,1-.24-1.25,12.31,12.31,0,0,1,1,1.41v0a1.57,1.57,0,0,0-.71-.18m2.44-1.25a1.25,1.25,0,0,1-.25,1.25,1.57,1.57,0,0,0-.71.18v0a14.16,14.16,0,0,1,1-1.41m-1.06,1.27,0,0,0,0" class="cls-1"></path><path d="M294.84,43c0,.21.36,2,.36,2a1.09,1.09,0,0,1-.29.88c1.69-.34.94-1.35.94-1.35s-.26-1.11-.38-1.38Z" class="cls-1"></path><path d="M295,43c0,.21-.36,2-.36,2a1.09,1.09,0,0,0,.29.88c-1.69-.34-.94-1.35-.94-1.35s.27-1.11.38-1.39Z" class="cls-1"></path><path d="M287.25,29.13l.61.09h0l0-.62-.76-.25h0Zm.18-.16-.07-.3h0l.29.1V29Z" class="cls-1"></path><rect transform="translate(54.02 202.77) rotate(-42.19)" height="6.12" width="0.13" y="28.31" x="289.75" class="cls-1"></rect><path d="M287.89,29.2h-.07l0,0v0a.46.46,0,0,1,.19-.38.27.27,0,0,1,.16-.06.17.17,0,0,1,.12.05.16.16,0,0,1,0,.13.21.21,0,0,1-.07.15.54.54,0,0,1-.34.16m0-.09h0a.46.46,0,0,0,.28-.13.14.14,0,0,0,.05-.1.07.07,0,0,0-.08-.08.1.1,0,0,0-.1,0,.37.37,0,0,0-.16.27" class="cls-1"></path><path d="M287.5,29.63h0a.14.14,0,0,1-.12-.06.16.16,0,0,1,0-.12.21.21,0,0,1,.07-.15.47.47,0,0,1,.4-.15h0l0,0a.52.52,0,0,1-.19.38.22.22,0,0,1-.15.06m.23-.41a.37.37,0,0,0-.26.14.16.16,0,0,0-.06.09.11.11,0,0,0,0,.07s0,0,.05,0a.1.1,0,0,0,.1,0,.4.4,0,0,0,.16-.27h0" class="cls-1"></path><path d="M287.59,29.59l-.11.29s-.08.13.23.24a2,2,0,0,0,.24-.77l-.12-.12s-.16.36-.24.36" class="cls-1"></path><path d="M287.47,36a30.91,30.91,0,0,1,.23-6l.25-.64,1.64,1.82c-.58,4.11.45,5.47.45,5.47l-.51.83Z" class="cls-1"></path><path d="M290.76,32.38a5.26,5.26,0,0,0,.3,2.43l.75-1.29Z" class="cls-1"></path><path d="M284.52,34.43l.61,0h0l-.16-.59-.8-.08h0Zm.14-.2-.14-.28.31,0,.07.22h-.24Z" class="cls-1"></path><polygon points="289.64 37.63 289.71 37.53 285.04 34.24 284.97 34.35 289.64 37.63" class="cls-1"></polygon><path d="M285.09,34.37l0,0h0a.45.45,0,0,1,.1-.42.22.22,0,0,1,.12-.09.19.19,0,0,1,.15,0,.21.21,0,0,1,.07.13.26.26,0,0,1,0,.15.54.54,0,0,1-.36.24Zm.24-.46h0a.21.21,0,0,0-.08.06.44.44,0,0,0-.09.31.41.41,0,0,0,.25-.2.11.11,0,0,0,0-.09.09.09,0,0,0,0-.07h-.05" class="cls-1"></path><path d="M284.83,34.87a.14.14,0,0,1-.09,0,.18.18,0,0,1-.08-.13.21.21,0,0,1,0-.15.44.44,0,0,1,.35-.23h0v0a.55.55,0,0,1-.1.41.2.2,0,0,1-.13.09h-.05m.2-.46a.41.41,0,0,0-.25.19.22.22,0,0,0,0,.1.09.09,0,0,0,0,.07.11.11,0,0,0,.08,0,.16.16,0,0,0,.08-.06.46.46,0,0,0,.09-.31" class="cls-1"></path><path d="M285,34.81l0,.3s-.05.15.28.18a2.09,2.09,0,0,0,.06-.8l-.15-.09s-.07.39-.14.41" class="cls-1"></path><path d="M285.11,35.21s-.52,4.93,1.11,7.62l1.35-2.2s-.86-1.36-.53-4.87l-1.81-1.26Z" class="cls-1"></path><path d="M288.51,36.74a4.63,4.63,0,0,0,.33,2l.8-1.22Z" class="cls-1"></path><path d="M286.55,43.25a7.42,7.42,0,0,0,7.58,1.09l.6-.44-1.44.11a4.6,4.6,0,0,1-4-.64Z" class="cls-1"></path><path d="M294.29,44.14a3.57,3.57,0,0,1-2.37-.79h2.68c.19,0,.56.51-.31.79" class="cls-1"></path><path d="M302.76,28.35h0l-.76.25,0,.61h0l.6-.08Zm-.6.65h0v-.23l.3-.1-.08.3Z" class="cls-1"></path><rect transform="translate(75.34 232.65) rotate(-47.83)" height="0.13" width="6.12" y="31.3" x="296.95" class="cls-1"></rect><path d="M301.93,29.2a.54.54,0,0,1-.34-.16.2.2,0,0,1,0-.28.2.2,0,0,1,.28,0,.43.43,0,0,1,.19.38v0l0,0h-.06m-.24-.4s-.05,0-.06,0a.11.11,0,0,0,0,.16.54.54,0,0,0,.28.13h0a.45.45,0,0,0-.16-.27.14.14,0,0,0-.1,0" class="cls-1"></path><path d="M302.32,29.63a.24.24,0,0,1-.15-.06s-.21-.18-.18-.38v0l0,0h0a.44.44,0,0,1,.4.15.18.18,0,0,1,0,.27.16.16,0,0,1-.13.06m-.25-.4a.49.49,0,0,0,.16.27.11.11,0,0,0,.16,0s0-.11,0-.16a.38.38,0,0,0-.29-.13" class="cls-1"></path><path d="M302.23,29.59l.11.29s.09.13-.23.24a2,2,0,0,1-.23-.77l.12-.12s.15.36.23.36" class="cls-1"></path><path d="M302.36,36a30.91,30.91,0,0,0-.23-6l-.25-.64-1.65,1.82c.58,4.11-.45,5.47-.45,5.47l.51.83Z" class="cls-1"></path><path d="M299.06,32.38a5.13,5.13,0,0,1-.3,2.43L298,33.52Z" class="cls-1"></path><path d="M305.65,33.71h0l-.79.08-.17.59h0l.61,0Zm-.72.51h0L305,34l.31,0-.14.28Z" class="cls-1"></path><polygon points="300.18 37.63 300.11 37.53 304.78 34.24 304.85 34.35 300.18 37.63" class="cls-1"></polygon><path d="M304.72,34.37a.51.51,0,0,1-.35-.24.21.21,0,0,1,0-.17.19.19,0,0,1,.07-.11.17.17,0,0,1,.14,0,.24.24,0,0,1,.13.09.52.52,0,0,1,.1.42h0Zm-.23-.46h0s0,0,0,.06a.19.19,0,0,0,0,.1.45.45,0,0,0,.26.2.45.45,0,0,0-.1-.31.16.16,0,0,0-.08-.06h0" class="cls-1"></path><path d="M305,34.87h-.05a.18.18,0,0,1-.12-.09.48.48,0,0,1-.1-.41h0l0,0h0a.48.48,0,0,1,.36.23.26.26,0,0,1,0,.15.17.17,0,0,1-.07.13.17.17,0,0,1-.1,0m-.2-.46a.4.4,0,0,0,.1.31.13.13,0,0,0,.07.06.11.11,0,0,0,.08,0,.09.09,0,0,0,0-.07.1.1,0,0,0,0-.09.41.41,0,0,0-.26-.2" class="cls-1"></path><path d="M304.87,34.81l.05.3s.05.15-.28.18a1.9,1.9,0,0,1-.06-.8l.14-.09s.07.39.15.41" class="cls-1"></path><path d="M304.72,35.21s.52,4.93-1.11,7.62l-1.36-2.2s.86-1.36.53-4.87l1.82-1.26Z" class="cls-1"></path><path d="M301.32,36.74a4.71,4.71,0,0,1-.34,2l-.79-1.22Z" class="cls-1"></path><path d="M303.28,43.25a7.44,7.44,0,0,1-7.59,1.09l-.6-.44,1.45.11a4.57,4.57,0,0,0,3.95-.64Z" class="cls-1"></path><path d="M295.54,44.14a3.57,3.57,0,0,0,2.37-.79h-2.69c-.19,0-.56.51.32.79" class="cls-1"></path><path d="M294.52,25l.39.47.39-.47-.39-.7h0Zm.24,0,.15-.27.15.27-.15.19h0Z" class="cls-1"></path><polygon points="294.85 25.72 294.98 25.72 294.98 25.29 294.85 25.29 294.85 25.72" class="cls-1"></polygon><path d="M295.29,25.57a.49.49,0,0,1-.38-.16v-.06a.46.46,0,0,1,.4-.15.2.2,0,0,1,.21.18.21.21,0,0,1-.22.19h0m-.29-.19a.43.43,0,0,0,.3.1.1.1,0,1,0,0-.2h0a.37.37,0,0,0-.27.1" class="cls-1"></path><path d="M294.54,25.57h0a.24.24,0,0,1-.16-.07.17.17,0,0,1-.05-.12.18.18,0,0,1,.05-.12.23.23,0,0,1,.16-.06.46.46,0,0,1,.4.15v.06a.48.48,0,0,1-.38.16m0-.09a.44.44,0,0,0,.31-.1.44.44,0,0,0-.3-.1.18.18,0,0,0-.11,0,.1.1,0,0,0,0,.12.13.13,0,0,0,.1,0" class="cls-1"></path><path d="M294.69,25.52s.19-.09.19-.09v.17a.92.92,0,0,1-.17.51.35.35,0,0,1-.34-.26,3.61,3.61,0,0,1,.31-.33" class="cls-1"></path><path d="M295.06,25.49a.35.35,0,0,0-.14-.06v.17a1.1,1.1,0,0,0,.18.55.36.36,0,0,0,.35-.28,2.94,2.94,0,0,0-.33-.35Z" class="cls-1"></path><path d="M294.62,25.84a5.51,5.51,0,0,0-.68,4l.54-.82a2.38,2.38,0,0,1,.37-1.74,2.22,2.22,0,0,0,.34-1.25s-.17-.71-.57-.2" class="cls-1"></path><path d="M295,28.38a3.87,3.87,0,0,0,.12-1.84,6.29,6.29,0,0,1,.38,2.84Z" class="cls-1"></path><path d="M304.1,43.43H285.73l9.18-15.35Zm-9.19-14.35-8.28,13.85H303.2Z" class="cls-1"></path><path d="M291.9,37.33h0a.77.77,0,0,1,.42.17l0,0a2.63,2.63,0,0,0,.52.35l.19.09.15.07.11.05v0l0,0,.24-.15a1.06,1.06,0,0,1,.25-.09.55.55,0,0,1,.22,0,.79.79,0,0,1,.26.08l.12.09a2.75,2.75,0,0,0,.33.23l.07,0h0l.21-.14a1.17,1.17,0,0,1,.24-.09.59.59,0,0,1,.19,0,.79.79,0,0,1,.26.08l.11.08.31.22a1.67,1.67,0,0,0,.23.12,1.26,1.26,0,0,1,.26.13h0l.14-.1.23-.11.17,0a.54.54,0,0,1,.25.06.51.51,0,0,1,.13.09,1.84,1.84,0,0,0,.4.26l.08,0h0l.17-.11a.8.8,0,0,1,.2-.07.46.46,0,0,1,.36.07l.08.06a2.45,2.45,0,0,0,.38.24l0,0a1,1,0,0,1,.21.1,1.76,1.76,0,0,1,.3.24l.15.16.33.36c.18.18.35.36.54.53a4.32,4.32,0,0,0,.39.34,2,2,0,0,0,.24.16l.07,0h-14l0-.08.06-.09.39-.39.41-.39.42-.35.27-.19.05,0a5.11,5.11,0,0,0,.8-.66l.21-.23v0c.09-.14.19-.27.29-.4s.22-.25.34-.37a1.81,1.81,0,0,1,.3-.25,1.52,1.52,0,0,1,.3-.17,1,1,0,0,1,.3-.07h.1Zm3.86,3.43,0,0-.32-.28q-.42-.37-.81-.78l-.43-.45L294,39a2.39,2.39,0,0,0-.22-.23,3,3,0,0,0-.61-.47l-.12-.06-.19-.08a2.63,2.63,0,0,1-.33-.2l-.27-.2-.11-.08a.56.56,0,0,0-.31-.06l-.18,0a1.41,1.41,0,0,0-.24.13,2.69,2.69,0,0,0-.32.27q-.14.14-.27.3c-.1.13-.2.26-.29.4l0,0c-.11.13-.22.25-.34.37a6.16,6.16,0,0,1-.69.55l-.08.06a2.4,2.4,0,0,0-.29.19l-.44.37-.34.33-.11.11h7.58m1.52,0h0l0,0c-.23-.19-.44-.39-.65-.6l-.24-.25c-.2-.2-.39-.41-.58-.62a2.86,2.86,0,0,0-.4-.38l-.28-.19-.11-.05-.1,0a2,2,0,0,1-.32-.18l-.26-.19-.1-.07a.38.38,0,0,0-.24,0l-.13,0a1,1,0,0,0-.23.12h0a3.51,3.51,0,0,1,.4.37l.17.18c.32.36.66.7,1,1,.15.15.31.31.48.45s.29.25.44.37l.07.06h1.11Zm1.22,0h0l-.05,0-.61-.58-.34-.36c-.13-.13-.25-.26-.37-.4s-.21-.21-.32-.31l-.29-.2a.61.61,0,0,0-.14-.07l-.08,0a2.62,2.62,0,0,1-.54-.35l-.09-.06a.39.39,0,0,0-.14-.05h-.13a.88.88,0,0,0-.22.1h0l.24.15a2.67,2.67,0,0,1,.44.38l.16.18c.23.25.47.5.71.74l.27.27.53.47.16.14h.81m1.3,0,0,0-.19-.17-.45-.44-.48-.52-.23-.23a1.89,1.89,0,0,0-.27-.2l-.12,0-.13-.06a2.36,2.36,0,0,1-.42-.28l-.08-.06a.35.35,0,0,0-.14,0,.5.5,0,0,0-.13,0,.78.78,0,0,0-.18.11h0a2.61,2.61,0,0,1,.24.23l.15.15c.21.24.43.47.65.7l.26.25a6.14,6.14,0,0,0,.47.42l.16.14h.9m1,0,0,0-.36-.35-.29-.29c-.1-.11-.21-.22-.31-.34l-.16-.16a1.93,1.93,0,0,0-.28-.22l-.12-.06-.05,0a2.11,2.11,0,0,1-.45-.28l-.06,0a.2.2,0,0,0-.17,0,.46.46,0,0,0-.16.07h0a1.87,1.87,0,0,1,.34.29l.14.15c.21.23.43.46.65.68l.31.3.33.29h.65" class="cls-1"></path><rect height="0.13" width="1.51" y="38.97" x="288.54" class="cls-1"></rect><rect height="0.13" width="2.09" y="38.97" x="299.06" class="cls-1"></rect><rect height="2.79" width="0.17" y="35.57" x="294.82" class="cls-1"></rect><path d="M295.48,35.4c0,.12-.26.23-.57.23s-.58-.11-.58-.23.26-.24.58-.24.57.11.57.24" class="cls-1"></path><path d="M295,34.31a.49.49,0,0,0-.55,0s-.34.19-.16.47c0,0,0,.09.18,0a.21.21,0,0,0,.12-.15v.06c0,.1-.13.15-.14.16a2.77,2.77,0,0,0-.14.53c0,.12.26.23.58.23s.57-.11.57-.23a2.21,2.21,0,0,0-.46-1.09" class="cls-1"></path><path d="M293.19,35.65l0,.06-.31.14,0,.11h0c0-.07-.06-.09-.14-.07l0,0Z" class="cls-1"></path><path d="M292.85,35.52a.13.13,0,0,1-.05-.09.15.15,0,0,1,.11-.19.16.16,0,0,1,.21.13.14.14,0,0,1-.09.19l0-.07c.06,0,.07-.06.06-.12a.12.12,0,0,0-.14-.07.11.11,0,0,0-.08.13.13.13,0,0,0,.07.08v.05l-.27,0-.05-.25h.06l.05.19Z" class="cls-1"></path><path d="M292.73,34.63a.11.11,0,0,0-.12.11s0,.12.08.13.06,0,.07-.06l0-.14a.14.14,0,0,1,.14-.1c.12,0,.14.12.13.21a.18.18,0,0,1-.05.14.16.16,0,0,1-.14,0V34.9c.09,0,.12-.07.13-.13s0-.13-.07-.13-.07,0-.1.09l0,.1s0,.11-.13.1a.15.15,0,0,1-.14-.18c0-.18.12-.18.18-.18v.06Z" class="cls-1"></path><polygon points="292.7 34.32 292.84 34.37 292.93 34.11 292.99 34.13 292.9 34.38 293.06 34.44 293.15 34.15 293.21 34.17 293.1 34.52 292.62 34.37 292.73 34.02 292.8 34.04 292.7 34.32" class="cls-1"></polygon><path d="M293.06,33.66l0,0c.05,0,.05.07,0,.12l-.07.1-.13-.08.07-.11a.09.09,0,0,1,.08-.05m0-.07a.14.14,0,0,0-.1.07l-.11.19.42.26,0,0L293.1,34l.08-.13a.15.15,0,0,0-.05-.21.12.12,0,0,0-.1,0" class="cls-1"></path><polygon points="293.6 33.62 293.56 33.66 293.25 33.36 293.13 33.48 293.09 33.44 293.37 33.15 293.41 33.19 293.3 33.31 293.6 33.62" class="cls-1"></polygon><polygon points="293.77 33.47 293.48 33.08 293.52 33.04 293.83 33.43 293.77 33.47" class="cls-1"></polygon><polygon points="293.76 32.95 293.83 33.09 294.08 32.96 294.1 33.01 293.87 33.14 293.94 33.28 294.21 33.15 294.23 33.2 293.91 33.37 293.68 32.93 294 32.76 294.02 32.82 293.76 32.95" class="cls-1"></polygon><path d="M294.68,33.09l-.06-.29a.41.41,0,0,0,0-.12l0,.44h-.07l-.23-.38a.4.4,0,0,0,0,.12l.06.29h-.06l-.12-.48.1,0,.23.38.05-.44.09,0,.1.49Z" class="cls-1"></path><path d="M294.91,32.85l.12,0c.05,0,.1,0,.1.08a.09.09,0,0,1-.1.08l-.13,0Zm0-.2H295c.07,0,.1,0,.1.07s0,.07-.11.06h-.11Zm-.07-.07,0,.5H295c.12,0,.18,0,.18-.13a.1.1,0,0,0-.08-.12.13.13,0,0,0,.06-.11c0-.07,0-.13-.13-.13h-.21Z" class="cls-1"></path><path d="M295.46,32.71l.15,0s.08,0,.05.09-.06.06-.11,0l-.13,0Zm-.06-.08-.13.48.06,0,.05-.21.16,0c.08,0,.07.07.07.11a.19.19,0,0,0,0,.12l.08,0h0s0,0,0-.05v-.09c0-.06,0-.09,0-.1s.08,0,.09-.1,0-.15-.12-.17Z" class="cls-1"></path><polygon points="295.99 32.91 295.91 33.04 296.15 33.18 296.12 33.23 295.88 33.09 295.8 33.24 296.05 33.39 296.03 33.43 295.71 33.25 295.96 32.82 296.27 33.01 296.24 33.06 295.99 32.91" class="cls-1"></polygon><path d="M296.58,33.38l.07.09c.06.07.05.14,0,.22a.15.15,0,0,1-.22,0l-.07-.08Zm0-.11-.38.32.12.16a.24.24,0,0,0,.34,0,.22.22,0,0,0,.05-.32Z" class="cls-1"></path><polygon points="296.93 33.83 296.79 33.9 296.91 34.14 296.86 34.17 296.74 33.92 296.59 34 296.72 34.27 296.67 34.29 296.5 33.96 296.95 33.74 297.11 34.07 297.06 34.09 296.93 33.83" class="cls-1"></polygon><path d="M296.76,34.72v-.07l.34,0,0-.12h.05c0,.08,0,.1.11.11v0Z" class="cls-1"></path><path d="M297.13,35s.07,0,.06.08,0,.08-.06.08a.11.11,0,0,1-.08-.09.08.08,0,0,1,.08-.07m-.22,0A.08.08,0,0,1,297,35a.08.08,0,0,1-.09.09c-.07,0-.08-.06-.08-.1s.05-.08.09-.08m0-.08a.12.12,0,0,0-.11,0,.16.16,0,0,0,0,.12.15.15,0,0,0,.14.17.12.12,0,0,0,.12-.07.11.11,0,0,0,.1.06c.06,0,.13,0,.13-.14a.14.14,0,0,0-.12-.16.1.1,0,0,0-.1.07.13.13,0,0,0-.12-.09" class="cls-1"></path><path d="M297.06,35.3a.17.17,0,0,1,.13.21.14.14,0,0,1-.18.11c-.08,0-.1-.08-.13-.17V35.4c0-.07-.05-.1-.08-.11l-.06.26h-.05l.07-.33a.23.23,0,0,1,.17.16l0,.07c0,.06,0,.11.09.11s.09,0,.11-.07-.06-.11-.09-.12Z" class="cls-1"></path><path d="M296.57,35.78l0-.07.3.15,0-.1.05,0c0,.07,0,.11,0,.15v0Z" class="cls-1"></path><path d="M294.67,36l-.36,1.49h.05l.37-1.5h-.06" class="cls-1"></path><path d="M294.56,36l-.3.87v0h.05l.3-.88-.05,0" class="cls-1"></path><path d="M294.44,35.94l-.69,1.46h0l.05,0,.7-1.48-.05,0" class="cls-1"></path><path d="M294.34,35.88l-.76,1.26.05,0,.76-1.26-.05,0" class="cls-1"></path><path d="M294.24,35.81l-1.08,1.38h0l0,0,1.09-1.38s0,0,0,0" class="cls-1"></path><path d="M294.15,35.74l-1,1.07,0,0,1-1.07h0s0,0,0,0" class="cls-1"></path><path d="M294.07,35.66l-1.42,1.25,0,0,1.41-1.24h0s0,0,0,0" class="cls-1"></path><path d="M294,35.56l-.75.53h0l0,0,.77-.54,0,0" class="cls-1"></path><path d="M293.94,35.46l-.53.3,0,0,.52-.29a.08.08,0,0,1,0,0" class="cls-1"></path><path d="M293.88,35.37l-.55.24,0,0,.55-.24,0-.05" class="cls-1"></path><polygon points="293.27 35.44 293.29 35.49 293.85 35.31 293.86 35.31 293.85 35.26 293.27 35.44" class="cls-1"></polygon><path d="M293.82,35.15l-.59.13v0l.59-.13s0,0,0-.05" class="cls-1"></path><path d="M293.81,35l-.61.07v0l.61-.06V35" class="cls-1"></path><path d="M293.8,34.94v0h-.61v0h.61v0" class="cls-1"></path><path d="M293.81,34.81l-.6-.06h0v.06l.59,0h0a.11.11,0,0,0,0,0" class="cls-1"></path><path d="M293.83,34.69l-.61-.13v.06l.61.13a.13.13,0,0,1,0-.06" class="cls-1"></path><path d="M293.84,34.65s0,0,0-.06l-.58-.19,0,.06.57.18Z" class="cls-1"></path><path d="M293.9,34.48l-.55-.24h0l0,0,.57.24s0,0,0-.05" class="cls-1"></path><path d="M293.93,34.42l0-.05-.54-.29,0,.05.54.29Z" class="cls-1"></path><path d="M294,34.29l-.49-.35,0,0,.49.35,0,0" class="cls-1"></path><path d="M294.06,34.23l0,0-.44-.38h0l0,0,.45.39Z" class="cls-1"></path><path d="M294.19,34.11l-.41-.43h0l0,0,.41.43.05,0" class="cls-1"></path><path d="M294.28,34l-.36-.45v0l0,0,.37.46,0,0" class="cls-1"></path><path d="M294.33,34l.05,0-.29-.5h0l-.05,0,.3.51Z" class="cls-1"></path><path d="M294.48,33.93l-.24-.52h0l0,0,.24.53.05,0" class="cls-1"></path><path d="M294.6,33.89l-.19-.54h-.05l.19.55h.05" class="cls-1"></path><path d="M294.65,33.87h.06l-.12-.56v0h-.06Z" class="cls-1"></path><path d="M294.83,33.85l-.06-.59h0l.06.59h.05" class="cls-1"></path><path d="M294.89,33.84h.05v-.6h-.05v.58h0" class="cls-1"></path><path d="M295.05,33.86l.05-.6h-.05l-.06.59h.06" class="cls-1"></path><path d="M295.15,33.88h0l.12-.59h0l-.12.59h0" class="cls-1"></path><path d="M295.26,33.91l.19-.54v0h-.05l-.19.55h.05" class="cls-1"></path><path d="M295.37,34l.24-.53h0l-.05,0-.24.53h0l0,0" class="cls-1"></path><polygon points="295.76 33.49 295.71 33.46 295.43 33.97 295.42 33.98 295.47 34.01 295.76 33.49" class="cls-1"></polygon><path d="M295.55,34.07l.36-.46v0l0,0-.36.47h0l0,0" class="cls-1"></path><polygon points="296.01 33.67 295.61 34.11 295.65 34.15 296.04 33.72 296.05 33.71 296.01 33.67" class="cls-1"></polygon><polygon points="296.17 33.83 296.13 33.79 295.69 34.19 295.73 34.23 296.17 33.83" class="cls-1"></polygon><path d="M296.25,33.93l-.47.35h0l0,0,.47-.35h0Z" class="cls-1"></path><path d="M296.35,34.08l-.51.29h0l0,.05.52-.29h0Z" class="cls-1"></path><path d="M296.43,34.23l-.54.24h0l0,0,.53-.23h0Z" class="cls-1"></path><path d="M296.48,34.4l-.55.19a.43.43,0,0,1,0,0l.55-.19h0Z" class="cls-1"></path><path d="M296,34.74l.58-.13v0l-.58.13a.43.43,0,0,1,0,.05" class="cls-1"></path><path d="M296.56,34.75l-.59,0a.09.09,0,0,1,0,.05l.57-.05h0Z" class="cls-1"></path><path d="M296,34.9V35h.58v-.05Z" class="cls-1"></path><path d="M296,35.14s0,0,0,0l.56.13,0,0Z" class="cls-1"></path><path d="M296,35v.06l.57.06h0v0Z" class="cls-1"></path><path d="M296,35.25h0l0,0,.54.18h0v0Z" class="cls-1"></path><path d="M295.9,35.36h0s0,0,0,0l.52.23h0l0,0Z" class="cls-1"></path><path d="M295.86,35.45l0,0,.49.29h0l0,0Z" class="cls-1"></path><path d="M295.8,35.55l0,.05.73.53,0,0Z" class="cls-1"></path><path d="M295.73,35.65h0l0,0L297,36.93h0l0,0Z" class="cls-1"></path><path d="M295.65,35.73h0l0,0h0l.92,1.06,0,0Z" class="cls-1"></path><path d="M295.57,35.8l-.05,0,1.05,1.38,0,0Z" class="cls-1"></path><path d="M295.46,35.87l0,0,.72,1.24h0l0,0Z" class="cls-1"></path><path d="M295.37,35.92l-.05,0L296,37.4v0l.05,0Z" class="cls-1"></path><path d="M295.2,36l.29.86v0l.06,0-.3-.88-.05,0" class="cls-1"></path><path d="M295.09,36l.35,1.48h.05L295.15,36l-.06,0" class="cls-1"></path><path d="M289.87,45.89s-.17.19-.07.36c0,0,.16.21.42,0,0,0-.41,0-.35-.36" class="cls-1"></path><path d="M300,45.89c.06.36-.34.36-.34.36a.28.28,0,0,0,.42,0c.09-.17-.08-.36-.08-.36" class="cls-1"></path><path d="M291.4,45.68l-.09,0-.22.36.09,0a.19.19,0,0,0,.29-.07.19.19,0,0,0-.07-.29" class="cls-1"></path><path d="M292.11,46.05a.21.21,0,0,0-.28.11.21.21,0,1,0,.38.17.2.2,0,0,0-.1-.28" class="cls-1"></path><path d="M294.58,46.69a.21.21,0,0,0-.22.2.22.22,0,0,0,.2.24.23.23,0,0,0,.22-.21.21.21,0,0,0-.2-.23" class="cls-1"></path><path d="M296.59,46.72l-.12,0,0,.19.12,0a.09.09,0,0,0,.07-.11c0-.06-.06-.09-.12-.07" class="cls-1"></path><path d="M296.62,46.55a.08.08,0,0,0-.1-.06l-.11,0,0,.17.12,0a.08.08,0,0,0,.05-.11" class="cls-1"></path><path d="M297.4,46.21l-.07,0-.09,0,.08.19.1,0a.09.09,0,0,0,.06-.13.11.11,0,0,0-.08-.07" class="cls-1"></path><path d="M298.13,46l0,.18.16-.08-.15-.13-.05-.06h0a.78.78,0,0,1,0,.09" class="cls-1"></path><path d="M300,45.88l-.21-.19a1.45,1.45,0,0,0-1.63-.21,6.08,6.08,0,0,1-6.4,0,1.43,1.43,0,0,0-1.62.21l-.22.19a.72.72,0,0,1,.39,0l-.18.07c.23.09.14.25.14.25l.27-.24a9.57,9.57,0,0,1,1.22.61,6.73,6.73,0,0,0,6.4,0,9.57,9.57,0,0,1,1.22-.61l.28.24s-.1-.16.13-.25l-.18-.07a.72.72,0,0,1,.39,0m-8.8.23L291,46l.29-.48.16.09a.26.26,0,0,1,.1.39.27.27,0,0,1-.39.1m.4.22-.07,0,.27-.49.07,0Zm.34.18a.29.29,0,0,1,.25-.53.29.29,0,0,1-.25.53m.79-.16a.21.21,0,0,0-.1-.1c-.05,0-.11,0-.12,0s.22.18.15.35a.16.16,0,0,1-.22.09.31.31,0,0,1-.15-.14l.07,0a.2.2,0,0,0,.11.11.08.08,0,0,0,.12,0c0-.12-.22-.19-.16-.35a.16.16,0,0,1,.23-.08.2.2,0,0,1,.13.11Zm.47.63a.21.21,0,0,1-.16-.27l.09-.35.08,0-.1.36a.12.12,0,0,0,.11.16.12.12,0,0,0,.17-.09l.1-.35.07,0-.09.35a.21.21,0,0,1-.27.15m.8.16-.08,0-.18-.41,0-.08h0a.54.54,0,0,0,0,.08l-.07.36-.07,0,.1-.55h.07l.19.41,0,.09h0a.32.32,0,0,1,0-.08l.06-.36h.08Zm.21,0h-.07l.06-.56h.08Zm.4,0a.29.29,0,1,1,0-.58.28.28,0,0,1,.27.3.29.29,0,0,1-.3.28m.77,0-.27-.36-.05-.08h0a.55.55,0,0,1,0,.09v.36H295l0-.56H295l.27.35.05.08h0a.54.54,0,0,1,0-.08l0-.36h.08l0,.57Zm.52,0-.09-.56h.08l.08.49.25,0v.06Zm.4-.07-.12-.56h.08l.12.55Zm.4-.1-.19.05-.15-.54.2,0a.14.14,0,0,1,.19.09.12.12,0,0,1,0,.14h0a.14.14,0,0,1,.13.11.16.16,0,0,1-.14.2m.29-.08-.18-.53.31-.11,0,.07-.23.08.05.17.19-.07,0,.07-.2.06.06.17.25-.08,0,.07Zm.71-.26-.2-.16-.11,0,.09.21-.08,0-.21-.52.16-.07.11,0a.15.15,0,0,1,.14.1.15.15,0,0,1,0,.18h0l0,0,.19.16Zm.28-.12-.22-.45-.17.08,0-.06.42-.2,0,.06-.17.08.21.46Zm.56-.3-.13-.11-.18.1,0,.17-.08,0-.09-.59.08,0,.45.4Zm.29-.17-.16.1-.3-.48.16-.09a.28.28,0,1,1,.3.47" class="cls-1"></path><path d="M298.51,45.63l-.08,0,.22.36.09,0a.2.2,0,0,0,.06-.3.19.19,0,0,0-.29-.06" class="cls-1"></path><rect height="69.82" width="1.58" y="3.63" x="253.26" class="cls-1"></rect><path d="M92.87,45a13.09,13.09,0,0,1,9.43,3.56l-2.85,4.64a10.53,10.53,0,0,0-6.29-2.57c-4.82,0-7.11,3.55-7.11,7.17s2.46,7.56,7.11,7.56c3.79,0,6.68-3.09,6.68-3.09l3.16,4.5A13.79,13.79,0,0,1,92.87,71C85,71,79.69,65.44,79.69,58A12.79,12.79,0,0,1,92.87,45" class="cls-1"></path><path d="M118,45c7.59,0,13.15,5.63,13.15,12.84a13.15,13.15,0,0,1-26.3,0C104.87,50.67,110.42,45,118,45m0,20.36c3.76,0,6.79-3.23,6.79-7.52a6.8,6.8,0,1,0-13.58,0c0,4.29,3,7.52,6.79,7.52" class="cls-1"></path><path d="M132.05,45.47h6.68l4.43,14.31c.5,1.58,1,4,1,4h.07s.46-2.46.95-4l4.5-14.31h6.58l-8.86,25.14H141Z" class="cls-1"></path><rect height="25.14" width="6.15" y="45.46" x="158.95" class="cls-1"></rect><path d="M171,45.47H180c7.91,0,13,4.6,13,12.51s-5.06,12.63-13,12.63H171Zm8.68,19.86c4.26,0,6.86-2.53,6.86-7.35s-2.71-7.24-6.86-7.24h-2.53V65.33Z" class="cls-1"></path><path d="M203.91,64.61h5.29V54.25c0-.94,0-1.91,0-1.91h-.07a4.72,4.72,0,0,1-1,1.32L206.69,55l-3.51-3.76L209.89,45h5.25V64.61h5.32v5.22H203.91Z" class="cls-1"></path><path d="M223.83,69.17,225.46,64a9.52,9.52,0,0,0,3.41.73,5.44,5.44,0,0,0,5.36-4.1h-.07a7,7,0,0,1-3.41.87c-5.18,0-8.14-4.24-8.14-8.52a8.25,8.25,0,0,1,8.49-8.38c5,0,10.08,3.79,10.08,11.89,0,6.75-4.14,13.8-11.86,13.8A12.62,12.62,0,0,1,223.83,69.17Zm11.09-14.12c0-2.95-2.08-4.94-3.82-4.94a2.61,2.61,0,0,0-2.51,2.78,3.49,3.49,0,0,0,3.76,3.66C233.74,56.55,234.92,56.2,234.92,55.05Z" class="cls-1"></path><rect height="4.39" width="6.7" y="56.4" x="194.69" class="cls-1"></rect></g></g></svg>